:version 1.10
:name ASF
:units
  mass 1
  length 1
  angle deg
:documentation
  ASF file generated by Kaydara
:root
  axis xyz
  order  tx ty tz rx ry rz
  position 0 0 0
  orientation 0 0 0
:bonedata
  begin
    id 1
    name RightUpLegDummy
    direction -1 2.30186e-007 8.31532e-007
    length 4.04083
    axis 0 0 0 xyz
  end
  begin
    id 2
    name RightUpLeg
    direction -0.000919234 -0.999985 0.00544864
    length 17.4221
    axis -3.80308 -0.00076134 -0.0523649 xyz
    dof rx ry rz
  end
  begin
    id 3
    name RightLeg
    direction -0.000919271 -0.999984 -0.00555045
    length 17.1239
    axis 4.00314 0.0181274 -0.183583 xyz
    dof rx ry rz
  end
  begin
    id 4
    name RightFoot
    direction -2.57843e-005 -4.04509e-007 1
    length 6.72091
    axis 8.18909e-005 -0.122003 -0.403008 xyz
    dof rx ry rz
  end
  begin
    id 5
    name RightToes
    direction 0.00116825 -0.014069 0.9999
    length 3.85082
    axis 0.000514414 0.540638 -0.356797 xyz
    dof rx ry rz
  end
  begin
    id 6
    name SpineDummy
    direction 0.0168869 0.966876 -0.254689
    length 6.99894
    axis 0 0 0 xyz
  end
  begin
    id 7
    name Spine
    direction -0.0132008 0.999903 0.00446247
    length 11.1999
    axis -0.00148109 0.00725429 0.756411 xyz
    dof rx ry rz
  end
  begin
    id 8
    name Spine1
    direction 0 0 0
    length 0
    axis -0.000934958 0.0245693 1.46543 xyz
    dof rx ry rz
  end
  begin
    id 9
    name HEadDummy
    direction -0.0255732 0.999672 0.00128215
    length 3.43865
    axis -0.000934958 0.0245693 1.46543 xyz
  end
  begin
    id 10
    name HEad
    direction -0.0472656 0.980052 0.19304
    length 5.12695
    axis -0.000934954 0.0245693 1.46543 xyz
    dof rx ry rz
  end
  begin
    id 11
    name LeftShoulder1Dummy
    direction 0.953098 0.301717 -0.023914
    length 3.68488
    axis -0.000934958 0.0245693 1.46543 xyz
  end
  begin
    id 12
    name LeftShoulder1
    direction 0.962466 0.271167 0.0112566
    length 3.13809
    axis -0.000934958 0.0245693 1.46543 xyz
    dof rx ry rz
  end
  begin
    id 13
    name LeftArm
    direction 0.999943 0.00455037 -0.00961766
    length 11.3419
    axis -23.1648 0.685459 1.22814 xyz
    dof rx ry rz
  end
  begin
    id 14
    name LeftForeArm
    direction 0.999332 0.0131969 0.0340885
    length 8.70632
    axis -9.90633 0.618216 0.0826942 xyz
    dof rx ry rz
  end
  begin
    id 15
    name LeftHand
    direction 0.994373 -0.0366703 0.0993905
    length 5.32135
    axis 0.00675269 0.680415 0.445699 xyz
    dof rx ry rz
  end
  begin
    id 16
    name RightShoulderDummy
    direction -0.967298 0.252589 -0.0230903
    length 3.68488
    axis -0.000934958 0.0245693 1.46543 xyz
  end
  begin
    id 17
    name RightShoulder
    direction -0.975062 0.221602 0.0120823
    length 3.13809
    axis 0.216257 0.0246515 1.45863 xyz
    dof rx ry rz
  end
  begin
    id 18
    name RightArm
    direction -0.99886 -0.00851186 -0.0469687
    length 10.3947
    axis -23.196 0.23503 -0.532632 xyz
    dof rx ry rz
  end
  begin
    id 19
    name RightForeArm
    direction -0.99909 0.00114866 0.0426317
    length 8.68355
    axis -9.91764 -0.134943 0.610517 xyz
    dof rx ry rz
  end
  begin
    id 20
    name RightHand
    direction -0.992888 -0.0489538 0.10852
    length 5.28593
    axis -0.00275396 -0.197403 0.246414 xyz
    dof rx ry rz
  end
  begin
    id 21
    name LeftUpLegDummy
    direction 1 -2.30186e-007 -8.31532e-007
    length 4.04083
    axis 0 0 0 xyz
  end
  begin
    id 22
    name LeftUpLeg
    direction -0.000920097 -1 2.79241e-006
    length 17.4221
    axis -3.48782 0.00143434 -0.0532288 xyz
    dof rx ry rz
  end
  begin
    id 23
    name LeftLeg
    direction -0.000920097 -1 2.7912e-006
    length 17.1239
    axis 3.68162 -0.00806512 -0.0529896 xyz
    dof rx ry rz
  end
  begin
    id 24
    name LeftFoot
    direction -2.57845e-005 -3.987e-007 1
    length 6.72091
    axis 3.02372e-005 -0.00147829 -0.214229 xyz
    dof rx ry rz
  end
  begin
    id 25
    name LeftToes
    direction 0.00813577 -0.00488255 0.999955
    length 3.85048
    axis 3.89895e-005 -0.0014783 -0.214229 xyz
    dof rx ry rz
  end
:hierarchy
  begin
    root RightUpLegDummy SpineDummy LeftUpLegDummy
    RightUpLegDummy RightUpLeg
    RightUpLeg RightLeg
    RightLeg RightFoot
    RightFoot RightToes
    SpineDummy Spine
    Spine Spine1
    Spine1 HEadDummy LeftShoulder1Dummy RightShoulderDummy
    HEadDummy HEad
    LeftShoulder1Dummy LeftShoulder1
    LeftShoulder1 LeftArm
    LeftArm LeftForeArm
    LeftForeArm LeftHand
    RightShoulderDummy RightShoulder
    RightShoulder RightArm
    RightArm RightForeArm
    RightForeArm RightHand
    LeftUpLegDummy LeftUpLeg
    LeftUpLeg LeftLeg
    LeftLeg LeftFoot
    LeftFoot LeftToes
  end

:SAMPLES-PER-SECOND 30
:FULLY-SPECIFIED
:DEGREES
147
root  -2.7245 31.2826 -53.7984 -161.655 16.7582 -179.441
RightUpLeg  -59.5449 -7.82234 -0.749911
RightLeg  72.9939 -2.9277 -7.91
RightFoot  -8.63471 0.0860483 1.74268
RightToes  -16.4107 -0.0623666 -0.147355
Spine  7.24539 2.85304 -1.55027
Spine1  13.6188 7.0792 -3.93781
HEad  -38.374 -3.00203 2.3891
LeftShoulder1  -1.94126e-019 -3.10601e-018 -2.51263e-017
LeftArm  -27.2773 5.93055 -73.2214
LeftForeArm  19.3251 -26.8793 -4.6663
LeftHand  -0.407431 1.68687 12.6789
RightShoulder  -4.96962e-017 0 -2.36833e-017
RightArm  -11.4433 5.11404 61.9175
RightForeArm  49.7966 62.4599 16.452
RightHand  -0.342549 -2.42355 -13.1265
LeftUpLeg  -55.2582 5.53621 -1.24802
LeftLeg  54.5368 -0.361904 -0.455246
LeftFoot  -0.815826 -0.00748776 0.304162
LeftToes  -12.8141 1.31378e-006 1.14341e-007
148
root  -2.14332 31.6837 -54.1795 -160.556 15.1089 -178.718
RightUpLeg  -58.3633 -6.45162 -1.67375
RightLeg  61.0585 -3.87898 -6.1264
RightFoot  -8.34591 0.059414 1.40658
RightToes  -16.086 -0.0607311 -0.144632
Spine  6.99991 1.98292 -1.62288
Spine1  13.2831 4.95108 -3.633
HEad  -38.1711 -3.64112 4.18802
LeftShoulder1  -1.94126e-019 -3.10601e-018 -2.51263e-017
LeftArm  -24.4287 2.91694 -72.9597
LeftForeArm  20.4373 -28.7746 -5.02571
LeftHand  -0.43089 0.699892 10.6768
RightShoulder  -4.96962e-017 0 -2.36833e-017
RightArm  -9.94048 4.70187 63.4531
RightForeArm  46.5664 50.3934 9.82755
RightHand  -0.350478 -1.77791 -11.0974
LeftUpLeg  -54.806 6.18261 -0.361612
LeftLeg  53.1355 -1.17994 -1.38906
LeftFoot  0.0259508 -0.000990074 0.223706
LeftToes  -12.8285 1.31378e-006 1.14341e-007
149
root  -1.49118 31.8701 -54.6547 -159.717 13.8805 -177.625
RightUpLeg  -55.6061 -4.31451 -2.80769
RightLeg  47.6041 -2.39772 -2.34812
RightFoot  -3.92702 -0.00336734 0.479109
RightToes  -19.2841 -0.0775039 -0.171041
Spine  6.78406 1.50162 -1.50118
Spine1  12.9999 3.65596 -2.94667
HEad  -38.1292 -4.55477 5.65714
LeftShoulder1  -1.94126e-019 -3.10601e-018 -2.51263e-017
LeftArm  -20.5866 0.863049 -72.8716
LeftForeArm  24.4124 -33.493 -5.9349
LeftHand  -0.479102 -0.634783 9.34798
RightShoulder  -4.96962e-017 0 -2.36833e-017
RightArm  -8.20457 3.93264 64.4464
RightForeArm  47.089 37.8279 5.74205
RightHand  -0.356271 -1.2998 -10.0139
LeftUpLeg  -54.2175 8.15643 0.336077
LeftLeg  52.4149 -1.53106 -1.75395
LeftFoot  -1.09344 0.00040915 0.204349
LeftToes  -12.2097 1.31378e-006 1.14341e-007
150
root  -0.830105 31.7417 -55.2412 -159.322 12.5498 -177.045
RightUpLeg  -52.2025 -2.77241 -4.36843
RightLeg  35.9473 1.03385 0.635033
RightFoot  6.56907 0.0127369 0.301882
RightToes  -33.8057 -0.170987 -0.277527
Spine  6.49589 1.24629 -1.27092
Spine1  12.4625 3.02078 -2.37061
HEad  -38.335 -5.81313 7.08982
LeftShoulder1  -1.94126e-019 -3.10601e-018 -2.51263e-017
LeftArm  -17.1486 0.176523 -73.0334
LeftForeArm  29.5461 -40.4965 -7.56137
LeftHand  -0.566272 -2.08304 8.99189
RightShoulder  -4.96962e-017 0 -2.36833e-017
RightArm  -6.47974 1.98484 64.9507
RightForeArm  49.716 26.9684 3.13658
RightHand  -0.355173 -0.954526 -9.24057
LeftUpLeg  -53.789 10.3447 0.0418397
LeftLeg  52.5808 -0.567001 -0.659867
LeftFoot  -4.50514 0.000500842 0.174232
LeftToes  -8.33482 1.31378e-006 1.14341e-007
151
root  -0.170139 31.3622 -55.8721 -160.778 10.8409 -176.941
RightUpLeg  -51.5053 -6.06289 -2.17306
RightLeg  40.1298 3.18928 2.32858
RightFoot  4.99261 0.0027439 0.446958
RightToes  -34.3796 -0.175213 -0.281224
Spine  6.53879 0.833324 -0.993678
Spine1  12.5795 1.99527 -1.69251
HEad  -38.9848 -6.80555 8.29213
LeftShoulder1  -1.94126e-019 -3.10601e-018 -2.51263e-017
LeftArm  -14.2009 -0.307679 -73.0903
LeftForeArm  32.4164 -46.7811 -9.48478
LeftHand  -0.611677 -2.58407 9.12094
RightShoulder  -4.96962e-017 0 -2.36833e-017
RightArm  -6.39876 -0.696383 65.3347
RightForeArm  53.6154 19.8911 1.62667
RightHand  -0.360938 -0.221064 -8.12859
LeftUpLeg  -52.2439 9.65729 1.8054
LeftLeg  54.8328 -1.16629 -1.45838
LeftFoot  -6.9822 0.00672037 0.271657
LeftToes  -12.6212 1.31378e-006 1.14341e-007
